<svg width="24" height="24" viewBox="0 0 24 24" fill="none" xmlns="http://www.w3.org/2000/svg">
<path d="M11.6241 7.2221C10.7481 7.2221 9.39206 6.2261 7.96406 6.2621C6.08006 6.2861 4.35206 7.3541 3.38006 9.0461C1.42406 12.4421 2.87606 17.4581 4.78406 20.2181C5.72006 21.5621 6.82406 23.0741 8.28806 23.0261C9.69206 22.9661 10.2201 22.1141 11.9241 22.1141C13.6161 22.1141 14.0961 23.0261 15.5841 22.9901C17.0961 22.9661 18.0561 21.6221 18.9801 20.2661C20.0481 18.7061 20.4921 17.1941 20.5161 17.1101C20.4801 17.0981 17.5761 15.9821 17.5401 12.6221C17.5161 9.8141 19.8321 8.4701 19.9401 8.4101C18.6201 6.4781 16.5921 6.2621 15.8841 6.2141C14.0361 6.0701 12.4881 7.2221 11.6241 7.2221ZM14.7441 4.3901C15.5241 3.4541 16.0401 2.1461 15.8961 0.850098C14.7801 0.898098 13.4361 1.5941 12.6321 2.5301C11.9121 3.3581 11.2881 4.6901 11.4561 5.9621C12.6921 6.0581 13.9641 5.3261 14.7441 4.3901Z" fill="#6d44bc"/>
</svg>
