<svg xmlns="http://www.w3.org/2000/svg" viewBox="0 0 1200 1200"><defs><style>.a{fill:#2c2d2d;}.b{fill:#3d3e3e;}.c{fill:#141212;}.d{fill:#666;}</style></defs><path class="a" d="M345.6,1172.2l-1.6-.3c-.6-.8-1.4-.7-2.3-.7l-1.6-.4a1.2,1.2,0,0,0-1.4-.5l-1.4-.4c-.3-.6-.8-.6-1.4-.6l-1.5-.6c-.2-.2-.4-.3-.6-.2l-1.3-.4c-.2-.6-.7-.7-1.3-.7h-.3l-.2-.2a1.4,1.4,0,0,0-1.4-.8H329l-.2-.2a1.3,1.3,0,0,0-1.4-.8h-.3l-.2-.2a1.3,1.3,0,0,0-1.3-.8c-.3.1-.5,0-.7-.3s-.3-.5-.7-.5l-1.4-1h-.2c-.2.1-.4,0-.5-.3l-.9-.6-1.3-1h-.1a.5.5,0,0,1-.6-.4l-.7-.6a5.1,5.1,0,0,1-2.5-1.9h.1l-.8-.6c0-.2-.2-.3-.4-.4s-.5,0-.5-.3l-.6-.6-.3-.3-.8-.7-.2-.2-.8-.7v-.2l-.9-.8v-.2a6,6,0,0,1-.8-.8h-.2l-.7-.8-.2-.2-.7-.8-.3-.3c0-.3-.2-.5-.6-.7s-.4-.1-.3-.4a1,1,0,0,0-.4-.5l-.6-.7v.2l-.9-1.5a1,1,0,0,0-.7-.9l-.2-.2a.7.7,0,0,0-.5-.7.6.6,0,0,1-.5-.7v.2l-.9-1.6-.6-.8c-.3-.1-.4-.2-.3-.5a1.3,1.3,0,0,0-.9-1.4v-.3a.5.5,0,0,0-.3-.5,26.7,26.7,0,0,1-4.5-9.1,1.4,1.4,0,0,0-.7-1.6c-3.3-7.6-4.4-15.6-4.6-23.8V337.2a38.4,38.4,0,0,1,0-4.8c.4-2.2-1-3.1-2.6-3.9-.1-.3-.2-.4-.5-.3h-.2v-.3a4.6,4.6,0,0,0-.7-.7c-1.4-1.4-1.2-3.2-1.2-4.9V289a4.1,4.1,0,0,1,1-3,1.1,1.1,0,0,0,.8-1h.1a.8.8,0,0,0,.9-.7V284h2.1a.5.5,0,0,0,.1-.8c.2-3,.6-5.9-.3-8.9V213.2c.9-1.8.5-3.8.5-5.7V96.4a72.6,72.6,0,0,1,5.3-28c.3-.7.8-1.4,1.1-2.1a1.4,1.4,0,0,0,.8-1.6l.2-.3c.8-.4,1.6-1.1,2.6-1a9.1,9.1,0,0,1-.8,3.7c-1.7,4.5-3.6,8.9-4.6,13.5a40.7,40.7,0,0,0-1.3,9.9c.1,10.1,0,20.1,0,30.2v55.5c0,1.4-.3,2.8.4,4.2s.5.2.8.3l.3-.2c.1-.5.3-.9.4-1.4V152.8a24.3,24.3,0,0,1,.3-3.8c0-.2.4-.4.6-.5a.5.5,0,0,1,.7.5,12.7,12.7,0,0,1,.3,2.8v43.1c-2.6.5-2.7.5-2.8,2.3a9.1,9.1,0,0,0,.2,3.3c1,2.6.7,5.3.7,8,0,13.1.1,26.1.1,39.2v1.4c-.1,18.4-.1,36.8-.1,55.1s0,36.5-.2,54.7.8,36.7-.7,55c0,24.3-.1,48.6-.1,72.9V642.5c0,25.9-.1,51.8.1,77.7s-.8,52,.7,78.1l.3,152.4c-.1,17-.1,34-.1,51a9.7,9.7,0,0,0,.2,2.4c.1.9.9,1.2,1.7,1.3v51.2c0,1.1-.2,2.2-.3,3.3s-.3.6-.7.4a1.3,1.3,0,0,1-.7-.5c-.1-1.4-.2-2.9-.2-4.3,0-5.2,0-10.5-.1-15.8a.9.9,0,0,0-.7-1,.7.7,0,0,0-.9.8c-.1,1.5-.2,2.9-.2,4.3v59.9a39.8,39.8,0,0,0,.7,7.6,46.1,46.1,0,0,1,1.2,5.6,41,41,0,0,0,4,13.6c1,1.8,1.9,3.7,2.8,5.5a49.1,49.1,0,0,0,7.4,10.6,69.7,69.7,0,0,0,12.3,11.3c3.2,2.2,6.3,4.9,10.1,6.2,5.3,1.8,10.4,4.1,15.9,5.1a66.5,66.5,0,0,0,11.8,1.2c13.7-.1,27.5,0,41.2,0,2.3,0,4.5-.1,6.5-1.3a5.8,5.8,0,0,1,3.2-.7,23.7,23.7,0,0,1,5.2.6c2.4.6,5,1.2,7.3-.6h17.2a2.5,2.5,0,0,0,2.1.9h13.2a4.9,4.9,0,0,0,1.7-.6l6.2-.2H567.6c2,0,4.1-.3,6.1.7a7.6,7.6,0,0,0,8.1-.1c1.6-.8,3.4-.6,5.1-.6h89.7l4.3.2c1.3,1,2.8.5,4.2.7s2.2-.1,2.7.5,4.1,1.4,6.3,1.4h77.6c4.9,0,9.8.6,14.7-.9a6.5,6.5,0,0,1,1.4,0c4.2.1,8.2-1,12.2-2.1a85.3,85.3,0,0,0,16.1-7,6.7,6.7,0,0,1,2.8-.6l-.9,2.6-.2.3h-.3c-1.4.1-3.1-.4-3.3,1.9h-.3c-.2-.1-.4,0-.5.3l-1.4.6a.5.5,0,0,0-.5.3l-1.5.7c-.1-.1-.3,0-.4.1l-1.6.8a16.1,16.1,0,0,0-6.1,1.1c-7.8,2.1-15.6,3.8-23.9,3.8H361.8c-2.3,0-4.6.3-6.7-.2A50.8,50.8,0,0,0,345.6,1172.2Z"/><path class="a" d="M851.3,926.8a31,31,0,0,1,0,8.6,1.7,1.7,0,0,0-1.6,1.7c0,.7-.1,1.4-.1,2.2h-3.3c-2,0-2-.1-2.5-2.6,1.1-.4,2-1,2-2.4V930c0-14.4-.1-28.8.1-43.1.3-24.9-.7-49.9.8-74.7q.1-191.6,0-383c0-18.7.7-37.3-.7-56-.1-36.1-.1-72.2-.2-108.3,1.3-1,.9-2.5.9-3.8s0-2.4-2.9-3.2v-3.3a2.3,2.3,0,0,0,2-2.3V191c.1-2.6-.7-5.4,1.6-7.6.5-.5.3-1.6.4-2.3a2.4,2.4,0,0,1,.9-1.6c1.7,1.6.9,3.6.9,5.5q.1,69,.1,138.1v4.3a2.9,2.9,0,0,0,1.7,2.7c.1,1.7.1,3.5.1,5.2V905.2c0,1.7-.1,3.5-.2,5.2s-1.5.6-1.5,1.5c-.1,4.5-.1,8.9,0,13.3A1.7,1.7,0,0,0,851.3,926.8Z"/><path class="b" d="M851.4,330.1a2.9,2.9,0,0,1-1.7-2.7v-4.3q0-69.2-.1-138.1c0-1.9.8-3.9-.9-5.5v-5.8c1.2-1.4,1.2-1.4,0-2.8a24.6,24.6,0,0,0,.9-8.1V133.1a14.6,14.6,0,0,0-.2-4.2,27.8,27.8,0,0,1-.7-8.1V96.4c0-3.7.7-7.3,0-10.9,1-1.3.9-1.5-.9-1.9,0-1.3-.1-2.6-.1-3.8s.5-.6.4-.8c-.8-2.4-1.6-4.8-2.5-7.1a2.6,2.6,0,0,0-2.5-1.8c-.1-1.6-.2-3.1-1.5-4.3a5.1,5.1,0,0,1-1.5-4.3c-.4-1.7-.6-3.5-2.9-3.9l-1.9-2.8a1.8,1.8,0,0,0-1.9-2c-.6-.9-.9-2.1-2-2.8a5.5,5.5,0,0,0-4.7-4.8l-2.9-2a1.8,1.8,0,0,0-1.9-1.9,18.8,18.8,0,0,0-5.8-3.8,1.7,1.7,0,0,0-1.9-1.9h-2.9a1.7,1.7,0,0,0-1.9-1.8,3.2,3.2,0,0,0-3.5-1.9,8.3,8.3,0,0,1-6.1-1.9c-.6-1.9-.6-1.9-3-1.8a21.8,21.8,0,0,1-7.2-.1,8.7,8.7,0,0,0-2.3-.1,1.7,1.7,0,0,0-1.8-1.8H504.2l-5.8.2H355.8a1.6,1.6,0,0,0-2.1,1.7h-4.8c-1.2-1-1.4-.9-1.9.9A32.8,32.8,0,0,0,335.6,32a46.7,46.7,0,0,1-8.2,3.7,2.7,2.7,0,0,0-1.2.6c-2.2,2.6-5.4,3.7-7.9,5.9s-8.3,6.9-11.5,11.2-4.7,5.2-5.4,8.8c-.1.5-.9.8-1.4,1.2s-1.8.6-2.6,1a11.8,11.8,0,0,1,1.9-4.3c12-19.8,29.5-31.5,52.4-34.8a80.3,80.3,0,0,1,11-.4H779.9c9,0,17.9,1.2,26.2,4.6,25.2,10.5,40.2,29.1,44.8,56.1a73.1,73.1,0,0,1,.7,12.4V277.2a16,16,0,0,1-.1,3.8c-.2,1.7.9,2.3,1.9,3-.9.3-1.8.7-1.8,1.9v35.8c0,1.5-.1,2.9,0,4.3s.1,1.6,2.4,2.2l.3.3Z"/><path class="a" d="M851.3,943.1c.1,1.6.2,3.2.2,4.7v153.5c0,1.9-.1,3.8-.2,5.7h-1.7c-1.6-1.7-.9-3.7-.9-5.5V948.5a24.4,24.4,0,0,1,.1-3.8c0-.6.5-1.1.8-1.6Z"/><path class="b" d="M345.6,1172.2a50.8,50.8,0,0,1,9.5.8c2.1.5,4.4.2,6.7.2H778c8.3,0,16.1-1.7,23.9-3.8a16.1,16.1,0,0,1,6.1-1.1c-5.1,2.8-10.8,3.9-16.4,4.8a80,80,0,0,1-12.9.9H362.6a117.2,117.2,0,0,1-13.3-.9C348,1173,346.8,1172.5,345.6,1172.2Z"/><path class="b" d="M289.5,213.2v1.7a2.8,2.8,0,0,0-2.9,3.1,11.9,11.9,0,0,0,.3,3.3,12.7,12.7,0,0,1,.6,4.7v33.5a19.3,19.3,0,0,1-.5,4.7c-1,3.5-.8,6.9,1.5,9.9-2.4-.4-3.4-2.1-3.7-4.2a19.3,19.3,0,0,1-.1-3.4V218.7C284.9,215.3,285.7,214.4,289.5,213.2Z"/><path class="a" d="M854,328.2c-2.3-.6-2.4-.6-2.4-2.2s0-2.8,0-4.3V285.9c0-1.2.9-1.6,1.8-1.9l1.1.6a.5.5,0,0,0,.5.4h.3v.3a1.3,1.3,0,0,0,.9,1.5,11.4,11.4,0,0,1,.2,5.8,1.9,1.9,0,0,0-2,2.1,11.5,11.5,0,0,0,.1,1.9v19.7c-.1,2.5-.1,2.5,1.9,3.1a12.7,12.7,0,0,1-.3,6.7,1.4,1.4,0,0,0-.9,1.5c0,.2-.2.3-.4.4Z"/><path class="c" d="M288.5,274.1c-2.3-3-2.5-6.4-1.5-9.9a19.3,19.3,0,0,0,.5-4.7V226a12.7,12.7,0,0,0-.6-4.7,11.9,11.9,0,0,1-.3-3.3,2.8,2.8,0,0,1,2.9-3.1v59.4Z"/><path class="a" d="M847.6,1125.9c-.1.5-.3,1-.4,1.4a1.3,1.3,0,0,0-.5,1.4c-.3.5-.5,1.1-.8,1.6a.4.4,0,0,0-.1.5l-.5,1.2h-2.4l.6-2.3c1.7-5.8,4.1-11.5,4.4-17.7,0-.4.5-.7.8-1.1s.7,2.3,1.8,2.9a13.7,13.7,0,0,1-.2,1.9c-.6.2-1.3.3-1.4,1C848.6,1119.8,847.3,1122.7,847.6,1125.9Z"/><path class="a" d="M840.1,1141.5a8.3,8.3,0,0,0-.8,1.2c-.2.1-.3.2-.3.4v.3h-.3l-.7.9h0c-1.8,0-1.9,1.2-2,2.6v.2l-.8.9h-.1a1.1,1.1,0,0,0-.8.9h-2.9c.2-.6.2-1.4.6-1.8a58.8,58.8,0,0,0,7.3-9.9c.3-.5,1.1-.6,1.7-.8s-.1,2.3-.1,3.5v.2h-.3Z"/><path class="b" d="M854.6,296.7a11.5,11.5,0,0,1-.1-1.9,1.9,1.9,0,0,1,2-2.1c.1,1.4.3,2.8.3,4.2v18.4c0,1.4-.2,2.8-.3,4.2-2-.6-2-.6-1.9-3a2.2,2.2,0,0,0,.7-1.7c0-5.5.1-11,.1-16.5A2.1,2.1,0,0,0,854.6,296.7Z"/><path class="b" d="M851.3,926.8a1.7,1.7,0,0,1-1.5-1.6c-.1-4.4-.1-8.8,0-13.3,0-.9.7-1.3,1.5-1.5A112.2,112.2,0,0,1,851.3,926.8Z"/><path class="b" d="M831.4,1149.3h2.9a26.9,26.9,0,0,1-7.7,7.7l-.2-.2c.1-.9.1-1.8.2-2.7a6.8,6.8,0,0,1,2.9-2.9A3.5,3.5,0,0,0,831.4,1149.3Z"/><path class="b" d="M840.9,1140.3c0-1.2.1-2.4.1-3.5h0c2-1.2,2-1.4,1-2.9a2,2,0,0,1,.9-1.9h2.4A23,23,0,0,1,840.9,1140.3Z"/><path class="b" d="M847.6,1125.9c-.3-3.2,1-6.1,1.3-9.2.1-.7.8-.8,1.4-1A26.2,26.2,0,0,1,847.6,1125.9Z"/><path class="b" d="M850.5,1113.8c-1.1-.6-.5-2.4-1.8-2.9l.9-3.8h1.7A14.2,14.2,0,0,1,850.5,1113.8Z"/><path class="b" d="M851.3,943.1h-1.7v-3.8c0-.8.1-1.5.1-2.2a1.7,1.7,0,0,1,1.6-1.7A24.9,24.9,0,0,1,851.3,943.1Z"/><path class="b" d="M818,1163.3l.9-2.6h0l2.7-.2.2.2A7.7,7.7,0,0,1,818,1163.3Z"/><path class="b" d="M814.2,1165.5c.2-2.3,1.9-1.8,3.3-1.9A5.8,5.8,0,0,1,814.2,1165.5Z"/><path class="b" d="M824.6,1158.7a5.2,5.2,0,0,1-2.8,2l-.2-.2c.4-1.5,1.7-1.7,2.9-1.9Z"/><path class="b" d="M836.1,1147.1c.1-1.4.2-2.6,2-2.6A4,4,0,0,1,836.1,1147.1Z"/><path class="b" d="M341.7,1171.2c.9,0,1.7-.1,2.3.7A2.9,2.9,0,0,1,341.7,1171.2Z"/><path class="b" d="M289.8,283.2a.5.5,0,0,1-.1.8h-1.8A2.8,2.8,0,0,1,289.8,283.2Z"/><path class="b" d="M338.7,1170.3a1.2,1.2,0,0,1,1.4.5A1.3,1.3,0,0,1,338.7,1170.3Z"/><path class="b" d="M300.2,1139.7a1.3,1.3,0,0,1,.9,1.4C300.5,1140.8,300.1,1140.4,300.2,1139.7Z"/><path class="b" d="M335.9,1169.3c.6,0,1.1,0,1.4.6S336.3,1169.8,335.9,1169.3Z"/><path class="b" d="M297.2,64.7a1.4,1.4,0,0,1-.8,1.6A1.7,1.7,0,0,1,297.2,64.7Z"/><path class="b" d="M331.2,1167.4c.6,0,1.1.1,1.3.7A1.4,1.4,0,0,1,331.2,1167.4Z"/><path class="b" d="M329.3,1166.4a1.4,1.4,0,0,1,1.4.8C330,1167.4,329.6,1166.9,329.3,1166.4Z"/><path class="b" d="M294.6,1128.2a1.4,1.4,0,0,1,.7,1.6A1.5,1.5,0,0,1,294.6,1128.2Z"/><path class="b" d="M327.4,1165.5a1.3,1.3,0,0,1,1.4.8A1.3,1.3,0,0,1,327.4,1165.5Z"/><path class="b" d="M325.6,1164.5a1.3,1.3,0,0,1,1.3.8C326.2,1165.4,325.9,1165,325.6,1164.5Z"/><path class="b" d="M856.3,286.9a1.3,1.3,0,0,1-.9-1.5A1.3,1.3,0,0,1,856.3,286.9Z"/><path class="d" d="M855.3,327.7a1.4,1.4,0,0,1,.9-1.5C856.4,327,855.9,327.4,855.3,327.7Z"/><path class="b" d="M846.7,1128.7a1.3,1.3,0,0,1,.5-1.4A1.3,1.3,0,0,1,846.7,1128.7Z"/><path class="b" d="M307.1,1149.2c.4.2.6.4.6.7S307.1,1149.7,307.1,1149.2Z"/><path class="b" d="M834.3,1149.2a1.1,1.1,0,0,1,.8-.9C835.2,1148.9,834.9,1149.2,834.3,1149.2Z"/><path class="b" d="M308,1150.2l.7.8C308.2,1150.9,308,1150.7,308,1150.2Z"/><path class="b" d="M308.9,1151.2l.7.8C309.1,1152,308.9,1151.7,308.9,1151.2Z"/><path class="b" d="M309.8,1152.1a6,6,0,0,0,.8.8C310.1,1152.9,309.8,1152.7,309.8,1152.1Z"/><path class="b" d="M310.7,1153.1l.9.8C311,1153.9,310.8,1153.6,310.7,1153.1Z"/><path class="b" d="M311.7,1154.1l.8.7C312,1154.8,311.7,1154.6,311.7,1154.1Z"/><path class="d" d="M854,328.2h.9c0,.3-.2.5-.6.4Z"/><path class="b" d="M312.7,1155l.8.7C313,1155.7,312.7,1155.5,312.7,1155Z"/><path class="b" d="M313.8,1156l.6.6A.5.5,0,0,1,313.8,1156Z"/><path class="b" d="M314.9,1156.9c.2.1.4.2.4.4H315Z"/><path class="b" d="M826.6,1157a.9.9,0,0,1-1,.8h-.1l.9-1Z"/><polygon class="b" points="316.1 1157.9 316 1157.9 316.1 1158.1 316.1 1157.9"/><path class="b" d="M825.6,1157.8a1.3,1.3,0,0,1-1,.9h-.1l1-.8Z"/><path class="b" d="M286.9,328.2c.3-.1.4,0,.5.3h-.3Z"/><path class="b" d="M318.5,1159.8l.7.6A.6.6,0,0,1,318.5,1159.8Z"/><polygon class="b" points="319.8 1160.8 319.9 1160.8 319.9 1161 319.8 1160.8"/><path class="b" d="M285.9,327.2a4.6,4.6,0,0,1,.7.7C286.1,327.9,285.9,327.7,285.9,327.2Z"/><path class="b" d="M306.4,1148.3a1,1,0,0,1,.4.5h-.4Z"/><path class="b" d="M321.2,1161.8l.9.6A.7.7,0,0,1,321.2,1161.8Z"/><polygon class="b" points="322.6 1162.7 322.8 1162.7 322.7 1162.9 322.6 1162.7"/><path class="b" d="M324.2,1163.7c.4,0,.6.1.7.5S324.3,1164.1,324.2,1163.7Z"/><path class="b" d="M835.2,1148.2l.8-.9A.9.9,0,0,1,835.2,1148.2Z"/><polygon class="b" points="305.7 1147.8 305.8 1147.6 305.7 1147.7 305.7 1147.8"/><path class="b" d="M286.5,285a1.1,1.1,0,0,1-.8,1A.9.9,0,0,1,286.5,285Z"/><path class="b" d="M304.1,1145.4a1,1,0,0,1,.7.9C304.3,1146.2,304,1146,304.1,1145.4Z"/><path class="b" d="M855,285a.5.5,0,0,1-.5-.4h.4Z"/><path class="b" d="M287.5,284.2a.8.8,0,0,1-.9.7C286.7,284.4,286.9,284.1,287.5,284.2Z"/><path class="b" d="M813.4,1165.9c.1-.3.3-.4.5-.3l-.2.3Z"/><path class="b" d="M303.4,1144.5a.7.7,0,0,1,.5.7C303.5,1145.1,303.3,1144.9,303.4,1144.5Z"/><path class="b" d="M811.5,1166.8a.5.5,0,0,1,.5-.3l-.2.4Z"/><path class="b" d="M838.1,1144.4l.7-.9C838.9,1144,838.6,1144.3,838.1,1144.4Z"/><polygon class="b" points="302.9 1144 302.9 1143.8 302.8 1143.8 302.9 1144"/><path class="b" d="M809.6,1167.6c.1-.1.3-.2.4-.1v.3Z"/><path class="b" d="M333.8,1168.5c.2-.1.4,0,.6.2H334Z"/><path class="b" d="M839,1143.1c0-.2.1-.3.3-.4v.3Z"/><path class="b" d="M301.4,1141.6l.6.8C301.5,1142.3,301.3,1142,301.4,1141.6Z"/><path class="b" d="M840.1,1141.5l.6-.9A.7.7,0,0,1,840.1,1141.5Z"/><path class="b" d="M299.8,1138.9a.5.5,0,0,1,.3.5l-.4-.2Z"/><path class="b" d="M845.8,1130.8a.4.4,0,0,1,.1-.5l.2.3Z"/><path class="c" d="M849.6,939.3v3.8c-.3.5-.8,1-.8,1.6a24.4,24.4,0,0,0-.1,3.8v153.1c0,1.8-.7,3.8.9,5.5l-.9,3.8c-.3.4-.8.7-.8,1.1-.3,6.2-2.7,11.9-4.4,17.7l-.6,2.3a2,2,0,0,0-.9,1.9c-1.2.7-1,1.8-1,2.9h0c-.6.2-1.4.3-1.7.8a58.8,58.8,0,0,1-7.3,9.9c-.4.4-.4,1.2-.6,1.8a3.5,3.5,0,0,1-1.9,1.9,6.8,6.8,0,0,0-2.9,2.9c-3.2,1-5.3,3.4-7.5,5.7-.2.2-.1.6-.2.9h0a6.7,6.7,0,0,0-2.8.6,85.3,85.3,0,0,1-16.1,7c-4,1.1-8,2.2-12.2,2.1a6.5,6.5,0,0,0-1.4,0c-4.9,1.5-9.8.9-14.7.9H694.1c-2.2,0-4.4.5-6.3-1.4s-1.8-.4-2.7-.5-2.9.3-4.2-.7c1.2-1.2,2.7-.8,4.1-.8l28.3-.2a31.7,31.7,0,0,0,4.3-.2c.6,0,1.3-.2,1.2-1.1s-.9-.8-1.4-.9h-1.5c-13.7-.3-27.4.2-41.1-.9-35.8-.1-71.6-.3-107.4-.2q-63.2,0-126.5.4c-5.7,0-11.4.9-17.2.7l-.9.2c-.9.4-1,1.1-.5,1.9l.6.8c-2.3,1.8-4.9,1.2-7.3.6a23.7,23.7,0,0,0-5.2-.6,5.8,5.8,0,0,0-3.2.7c-2,1.2-4.2,1.3-6.5,1.3-13.7,0-27.5-.1-41.2,0a66.5,66.5,0,0,1-11.8-1.2c-5.5-1-10.6-3.3-15.9-5.1-3.8-1.3-6.9-4-10.1-6.2a69.7,69.7,0,0,1-12.3-11.3A49.1,49.1,0,0,1,302,1136c-.9-1.8-1.8-3.7-2.8-5.5a41,41,0,0,1-4-13.6,46.1,46.1,0,0,0-1.2-5.6,39.8,39.8,0,0,1-.7-7.6v-59.9c0-1.4.1-2.8.2-4.3a.7.7,0,0,1,.9-.8.9.9,0,0,1,.7,1c.1,5.3.1,10.6.1,15.8,0,1.4.1,2.9.2,4.3a1.3,1.3,0,0,0,.7.5c.4.2.7,0,.7-.4s.3-2.2.3-3.3v-51.2c.1-13,.1-26,.1-39,0-5.2,0-10.5-.1-15.7.4-16.9-.2-33.8.7-50.8.5-10.3-.2-20.7-.3-31.1,0-21.5-.2-43.1.5-64.7.6-19.1.2-38.3.2-57.5q0-60,.1-119.9c0-39.9.1-79.9-.1-119.8s.3-79.9-.5-119.9c-.5-21.7-.8-43.4.2-65.1.4-8.1-.3-16.3-.5-24.4-.4-16.6-.2-33.3-.3-49.9.1-1.1.1-2.2.1-3.3,0-16.5,0-33-.1-49.4V151.8a12.7,12.7,0,0,0-.3-2.8.5.5,0,0,0-.7-.5c-.2.1-.6.3-.6.5a24.3,24.3,0,0,0-.3,3.8v26.3c-.1.5-.3.9-.4,1.4l-.3.2c-.3-.1-.7-.1-.8-.3s-.4-2.8-.4-4.2V120.7c0-10.1.1-20.1,0-30.2a40.7,40.7,0,0,1,1.3-9.9c1-4.6,2.9-9,4.6-13.5a9.1,9.1,0,0,0,.8-3.7c.5-.4,1.3-.7,1.4-1.2.7-3.6,3.4-6,5.4-8.8s7.6-7.6,11.5-11.2,5.7-3.3,7.9-5.9a2.7,2.7,0,0,1,1.2-.6,46.7,46.7,0,0,0,8.2-3.7A32.8,32.8,0,0,1,347,28.9c.8,0,1.5-.1,1.9-.9h4.8a1.8,1.8,0,0,0,2.1-1.7H498.4c.1,1.1.1,2.3.1,3.4-10.2.6-20.4.3-30.6.8-12.8.7-25.6.3-38.4.4-2.2-1.7-4.7-1-7.1-.5-.3.1-.4.8-.6,1.2s-1.7-.1-2,1.1c3,.3,6,.9,8.9.9,24.8.7,49.5.2,74.2.9s49.6.4,74.3.3c23-.2,46,.3,68.9-.6,14.9-.7,29.8-.4,44.6-.3,9.9.1,19.7-1.4,29.6-1a3.8,3.8,0,0,0,3.1-1h.5c2.4-.1,5.2,1,6.5-2.3.1-.4,1.1-.5,1.7-.6h49.7c1.9,0,3.8.1,5.5-1a8.7,8.7,0,0,1,2.3.1,21.8,21.8,0,0,0,7.2.1c.2,1.8,1.6,1.8,3,1.8a8.3,8.3,0,0,0,6.1,1.9,3.2,3.2,0,0,1,3.5,1.9c0,1.3.6,1.9,1.9,1.8h2.9a1.7,1.7,0,0,0,1.9,1.9,18.8,18.8,0,0,1,5.8,3.8c0,1.3.6,2,1.9,1.9l2.9,2a5.3,5.3,0,0,0,4.7,4.8c1.1.7,1.4,1.9,2,2.8s.6,2,1.9,2l1.9,2.8c.2,3.1.2,3.1,2.9,3.9a5.1,5.1,0,0,0,1.5,4.3c1.3,1.2,1.4,2.7,1.5,4.3s1.2,5,1.9,7.6a2.7,2.7,0,0,0,2.7,2.1c0,1.2.1,2.5.1,3.8s-1,1.4.9,1.9c.7,3.6,0,7.2,0,10.9v24.4a27.8,27.8,0,0,0,.7,8.1,14.6,14.6,0,0,1,.2,4.2v29.7a24.6,24.6,0,0,1-.9,8.1c-1.2,1.4-1.2,1.4,0,2.8v5.8a2.4,2.4,0,0,0-.9,1.6c-.1.7.1,1.8-.4,2.3-2.3,2.2-1.5,5-1.6,7.6-.6.1-1.3.2-1.6.8a6.3,6.3,0,0,0-.3,1.9c-.2,4.4.5,8.9-.8,13.3-.2.6.2,1.5.3,2.3a30.7,30.7,0,0,1,.1,10.9,48,48,0,0,0,.1,15.6,14.4,14.4,0,0,1-.1,6.2c-.9,3.4-.4,6.9-.5,10.4a2.8,2.8,0,0,0,.8,2.2v3.3c0,2.3,0,4.5-.1,6.8-.3,4.4-.7,8.9-.6,13.3.3,16-.7,32,.5,48,.3,5.2-.6,10.5-.6,15.7q-.2,212.7-.2,425.4c0,33.3-.7,66.5.8,99.7.1,3.9-.6,7.7-.6,11.5.3,19.5-.7,39,.8,58.4.5,2.5.5,2.6,2.5,2.6Zm-547-340.1v499.2c0,1.9-.1,3.8,0,5.8a62.2,62.2,0,0,0,.6,8.6c3.9,20.6,15.7,34.9,35.1,42.7,7.3,2.9,14.9,3.5,22.6,3.5H783.4a39.6,39.6,0,0,0,9.1-.9c20.3-4.3,34.3-16.1,41.8-35.5,2.8-7.1,3.2-14.6,3.2-22.1V98.5c0-2.2,0-4.5-.1-6.7a52.2,52.2,0,0,0-10.7-29.7c-11.5-15-26.9-22.4-45.6-22.4H359a52.4,52.4,0,0,0-14.7,1.8c-21.5,6.1-35.1,19.9-40.5,41.7-1.3,5.2-1.2,10.5-1.2,15.7ZM845.9,973.6h0c0-7.9.1-15.9,0-23.8a23.6,23.6,0,0,0-.2-3.8,1.5,1.5,0,0,0-1-.9,1.2,1.2,0,0,0-1.5.8,31,31,0,0,0-.2,4.3c0,12.9.1,25.8,0,38.7-.1,3.8.7,7.6,1,11.3.1.4.4,1,1,.8s.6-.4.6-.6a24.3,24.3,0,0,0,.3-3.8Zm-.1,53.3h.1v-15.7a2.8,2.8,0,0,0-.6-2.2.7.7,0,0,0-.9,0c-.7.7-.5,1.8-.5,2.7v24.8c0,2.4,0,4.8.1,7.2a1.8,1.8,0,0,0,.5,1.2c.1.2.6.2.8,0a2.9,2.9,0,0,0,.5-2.2Zm-1.9-857h0v10.9a6.1,6.1,0,0,0,.5,1.8c.1.1.8.2.8.1a4.3,4.3,0,0,0,.6-1.8V159a4.8,4.8,0,0,0-.5-1.7c-.1-.2-.8-.2-.8-.1a4.1,4.1,0,0,0-.5,1.8C843.9,162.6,843.9,166.2,843.9,169.9ZM383.3,1165.6h-10a.6.6,0,0,0-.6.9.7.7,0,0,0,.6.6l6.6.2c4,.2,7.9-.4,11.8.9a2.3,2.3,0,0,0,1.4-.2,2.1,2.1,0,0,0,.7-1.1,1,1,0,0,0-.6-1.2,11.3,11.3,0,0,0-1.8-.3Zm372.9.1h-7.1c-.6,0-1.3,0-1.5.8s.6,1.1,1.2,1.1h15.7c.5,0,1-.2,1-.7s-.6-1-1.2-1C761.6,1165.6,758.9,1165.7,756.2,1165.7ZM749.3,32.4c-.6-.3-.9-.6-1.2-.6-3.9-.2-7.9.3-11.8-.9a1.7,1.7,0,0,0-1.4.1c-.4.1-1,.3-.7,1s.4.6.6.6l6.2.2C743.6,32.7,746.3,33,749.3,32.4Zm-357.2-.2c.3.2.5.5.7.5h12.9a1.4,1.4,0,0,0,.9-.3c.2-.2.2-.5.3-.8a.3.3,0,0,0-.3-.3,4.1,4.1,0,0,0-1.7-.4c-2.8,1.1-5.7.7-8.6.9C395,31.8,393.5,31.4,392.1,32.2ZM843.8,144.6a26.1,26.1,0,0,1,.4,3.1c.1.4.4.6.7.4s.7-.3.7-.5a18.3,18.3,0,0,0,.2-3.3c-.1-1.2.4-2.5-.8-3.5C843.1,141.5,844.3,143.2,843.8,144.6Zm-86-112.3a.8.8,0,0,0-1.4,0l.7.3Z"/><path class="d" d="M297.1,247.6c.1,16.6-.1,33.3.3,49.9.2,8.1.9,16.3.5,24.4-1,21.7-.7,43.4-.2,65.1.8,40,.3,79.9.5,119.9s.1,79.9.1,119.8-.1,79.9-.1,119.9c0,19.2.4,38.4-.2,57.5-.7,21.6-.5,43.2-.5,64.7.1,10.4.8,20.8.3,31.1-.9,17-.3,33.9-.7,50.8h-1.8L295,798.3c-1.5-26.1-.5-52.1-.7-78.1s-.1-51.8-.1-77.7V486.8c0-24.3.1-48.6.1-72.9,1.5-18.3.5-36.7.7-55s.1-36.5.2-54.7,0-36.7.1-55.1v-1.4Z"/><path class="d" d="M422.9,1168.4l-.6-.8c-.5-.8-.4-1.5.5-1.9l.9-.2c5.8.2,11.5-.7,17.2-.7q63.3-.3,126.5-.4c35.8-.1,71.6.1,107.4.2,13.7,1.1,27.4.6,41.1.9h1.5c.5.1,1.3.1,1.4.9s-.6,1.1-1.2,1.1a31.7,31.7,0,0,1-4.3.2l-28.3.2c-1.4,0-2.9-.4-4.1.8l-4.3-.2H586.9c-1.7,0-3.5-.2-5.1.6a17.1,17.1,0,0,0-8.1.1c-2-1-4.1-.7-6.1-.7H463.3l-6.2.2c-.5-.3-1.1-.8-1.6-.8H441.8c-.5,0-1.1.5-1.7.7Z"/><path class="b" d="M297.1,247.6h-1.8c0-13.1-.1-26.1-.1-39.2,0-2.7.3-5.4-.7-8a9.1,9.1,0,0,1-.2-3.3c.1-1.8.2-1.8,2.8-2.3.1,16.4.1,32.9.1,49.4C297.2,245.4,297.2,246.5,297.1,247.6Z"/><path class="b" d="M295.3,950.7h1.8c.1,5.2.1,10.5.1,15.7,0,13,0,26-.1,39-.8-.1-1.6-.4-1.7-1.3a9.7,9.7,0,0,1-.2-2.4C295.2,984.7,295.2,967.7,295.3,950.7Z"/><path class="c" d="M440.1,1168.5c.6-.2,1.2-.7,1.7-.7h13.7c.5,0,1.1.5,1.6.8a4.9,4.9,0,0,1-1.7.6H442.2A2.5,2.5,0,0,1,440.1,1168.5Z"/><path class="c" d="M573.7,1169.3a17.1,17.1,0,0,1,8.1-.1A7.6,7.6,0,0,1,573.7,1169.3Z"/><path class="d" d="M843.8,936.7c-1.5-19.4-.5-38.9-.8-58.4,0-3.8.7-7.6.6-11.5-1.5-33.2-.8-66.4-.8-99.7q-.1-212.7.2-425.4c0-5.2.9-10.5.6-15.7-1.2-16-.2-32-.5-48a118.5,118.5,0,0,1,.7-13.3l2,.2c.1,36.1.1,72.2.2,108.3,1.4,18.7.7,37.3.7,56q.1,191.6,0,383c-1.5,24.8-.5,49.8-.8,74.7-.2,14.3-.1,28.7-.1,43.1v4.3C845.8,935.7,844.9,936.3,843.8,936.7Z"/><path class="b" d="M843.8,254.6a2.8,2.8,0,0,1-.8-2.2c.1-3.5-.4-7,.5-10.4a14.4,14.4,0,0,0,.1-6.2,48,48,0,0,1-.1-15.6,30.7,30.7,0,0,0-.1-10.9c-.1-.8-.5-1.7-.3-2.3,1.3-4.4.6-8.9.8-13.3a6.3,6.3,0,0,1,.3-1.9c.3-.6,1-.7,1.6-.8v61.3A2.3,2.3,0,0,1,843.8,254.6Z"/><path class="b" d="M845.8,264.9l-2-.2v-6.8c2.9.8,2.9.8,2.9,3.2S847.1,263.9,845.8,264.9Z"/><path class="a" d="M787.3,27.9c-1.7,1.1-3.6,1-5.5,1H732.1c-.6.1-1.6.2-1.7.6-1.3,3.3-4.1,2.2-6.5,2.3h-.5c-3.2-.1-6.5.3-9.6-.2a50,50,0,0,0-9.5-.7H681.8a16.2,16.2,0,0,1-3.8-.2,27.6,27.6,0,0,0-7.6-.6H504.7c-2.1,0-4.1-.2-6.2-.3,0-1.1,0-2.3-.1-3.4l5.8-.2H785.5A1.7,1.7,0,0,1,787.3,27.9Z"/><path class="a" d="M847.7,79.8a2.7,2.7,0,0,1-2.7-2.1c-.7-2.6-1.3-5.1-1.9-7.6a2.6,2.6,0,0,1,2.5,1.8c.9,2.3,1.7,4.7,2.5,7.1C848.2,79.2,847.8,79.5,847.7,79.8Z"/><path class="a" d="M831.4,50a5.3,5.3,0,0,1-4.7-4.8A5.5,5.5,0,0,1,831.4,50Z"/><path class="a" d="M840.1,61.5c-2.7-.8-2.7-.8-2.9-3.9C839.5,58,839.7,59.8,840.1,61.5Z"/><path class="a" d="M799.8,29.9c-1.4,0-2.8,0-3-1.8C799.2,28,799.2,28,799.8,29.9Z"/><path class="a" d="M848.7,173.7c-1.2-1.4-1.2-1.4,0-2.8C849.9,172.3,849.9,172.3,848.7,173.7Z"/><path class="a" d="M848.7,85.5c-1.9-.5-2-.7-.9-1.9C849.6,84,849.7,84.2,848.7,85.5Z"/><path class="a" d="M348.9,28c-.4.8-1.1.9-1.9.9C347.5,27.1,347.7,27,348.9,28Z"/><path class="a" d="M355.8,26.2a1.8,1.8,0,0,1-2.1,1.7A1.6,1.6,0,0,1,355.8,26.2Z"/><path class="a" d="M811.3,35.5c-1.3.1-1.9-.5-1.9-1.8A1.7,1.7,0,0,1,811.3,35.5Z"/><path class="a" d="M835.3,54.8c-1.3,0-1.9-.7-1.9-2A1.8,1.8,0,0,1,835.3,54.8Z"/><path class="a" d="M816.1,37.5a1.7,1.7,0,0,1-1.9-1.9A1.7,1.7,0,0,1,816.1,37.5Z"/><path class="a" d="M823.8,43.2c-1.3.1-1.9-.6-1.9-1.9A1.8,1.8,0,0,1,823.8,43.2Z"/><path class="d" d="M854.6,296.7a2.1,2.1,0,0,1,.8,1.6c0,5.5-.1,11-.1,16.5a2.2,2.2,0,0,1-.7,1.7Z"/><path class="a" d="M818.9,1160.7c.1-.3,0-.7.2-.9,2.2-2.3,4.3-4.7,7.5-5.7-.1.9-.1,1.8-.2,2.7l-.9,1-1,.8c-1.2.2-2.5.4-2.9,1.9Z"/><path class="a" d="M841,1136.8c0-1.1-.2-2.2,1-2.9C843,1135.4,843,1135.6,841,1136.8Z"/><path class="d" d="M498.5,29.6c2.1.1,4.1.3,6.2.3H670.4a27.6,27.6,0,0,1,7.6.6,16.2,16.2,0,0,0,3.8.2h22.5a50,50,0,0,1,9.5.7c3.1.5,6.4.1,9.6.2a3.8,3.8,0,0,1-3.1,1c-9.9-.4-19.7,1.1-29.6,1-14.8-.1-29.7-.4-44.6.3-22.9.9-45.9.4-68.9.6-24.7.1-49.5.5-74.3-.3s-49.4-.2-74.2-.9c-2.9,0-5.9-.6-8.9-.9.3-1.2,1.3-.8,2-1.1a20.8,20.8,0,0,0,6.1.2,2,2,0,0,0,1.6-.9c12.8-.1,25.6.3,38.4-.4C478.1,29.9,488.3,30.2,498.5,29.6Z"/><path class="b" d="M845.9,973.6v23a24.3,24.3,0,0,1-.3,3.8c0,.2-.3.5-.6.6s-.9-.4-1-.8c-.3-3.7-1.1-7.5-1-11.3.1-12.9,0-25.8,0-38.7a31,31,0,0,1,.2-4.3,1.2,1.2,0,0,1,1.5-.8,1.5,1.5,0,0,1,1,.9,23.6,23.6,0,0,1,.2,3.8c.1,7.9,0,15.9,0,23.8Z"/><path class="a" d="M845.8,1026.9v15.8a2.9,2.9,0,0,1-.5,2.2c-.2.2-.7.2-.8,0a1.8,1.8,0,0,1-.5-1.2c-.1-2.4-.1-4.8-.1-7.2v-24.8c0-.9-.2-2,.5-2.7a.7.7,0,0,1,.9,0,2.8,2.8,0,0,1,.6,2.2v15.7Z"/><path class="a" d="M843.9,169.9c0-3.7,0-7.3.1-10.9a4.1,4.1,0,0,1,.5-1.8c0-.1.7-.1.8.1a4.8,4.8,0,0,1,.5,1.7v21.9a4.3,4.3,0,0,1-.6,1.8c0,.1-.7,0-.8-.1a6.1,6.1,0,0,1-.5-1.8V169.9Z"/><path class="a" d="M383.3,1165.6h8.1a11.3,11.3,0,0,1,1.8.3,1,1,0,0,1,.6,1.2,2.1,2.1,0,0,1-.7,1.1,2.3,2.3,0,0,1-1.4.2c-3.9-1.3-7.8-.7-11.8-.9l-6.6-.2a.7.7,0,0,1-.6-.6.6.6,0,0,1,.6-.9h10Z"/><path class="a" d="M756.2,1165.7c2.7,0,5.4-.1,8.1,0,.6,0,1.4.1,1.2,1s-.5.7-1,.7H748.8c-.6,0-1.3-.2-1.2-1.1s.9-.8,1.5-.8h7.1Z"/><path class="a" d="M749.3,32.4c-3,.6-5.7.3-8.3.4l-6.2-.2c-.2,0-.5-.4-.6-.6s.3-.9.7-1a1.7,1.7,0,0,1,1.4-.1c3.9,1.2,7.9.7,11.8.9C748.4,31.8,748.7,32.1,749.3,32.4Z"/><path class="a" d="M392.1,32.2c1.4-.8,2.9-.4,4.2-.4,2.9-.2,5.8.2,8.6-.9a4.1,4.1,0,0,1,1.7.4.3.3,0,0,1,.3.3c-.1.3-.1.6-.3.8a1.4,1.4,0,0,1-.9.3H392.8C392.6,32.7,392.4,32.4,392.1,32.2Z"/><path class="a" d="M843.8,144.6c.5-1.4-.7-3.1,1.2-3.8,1.2,1,.7,2.3.8,3.5a18.3,18.3,0,0,1-.2,3.3c0,.2-.4.4-.7.5s-.6,0-.7-.4A26.1,26.1,0,0,0,843.8,144.6Z"/><path class="a" d="M429.5,30.8a2,2,0,0,1-1.6.9,20.8,20.8,0,0,1-6.1-.2c.2-.4.3-1.1.6-1.2C424.8,29.8,427.3,29.1,429.5,30.8Z"/><path class="a" d="M757.8,32.3l-.7.3-.7-.3a.8.8,0,0,1,1.4,0Z"/><circle class="b" cx="354.9" cy="73.2" r="11.2"/></svg>