<svg xmlns="http://www.w3.org/2000/svg" viewBox="0 0 512 512"><defs><style>.a{fill:#6d44bc;}.b{fill:#eab611;}</style></defs><circle class="a" cx="255.8" cy="257.4" r="246.3"/><circle class="b" cx="255.8" cy="257.4" r="223.2"/><path d="M228.7,159.5a4.5,4.5,0,1,0-4.5-4.5,4.5,4.5,0,0,0,4.5,4.5Z"/><path d="M282.3,159.5a4.5,4.5,0,1,0-4.5-4.5h0A4.5,4.5,0,0,0,282.3,159.5Z"/><path d="M282.4,161.8h0a10.3,10.3,0,0,0-7.8,3.6c-.5.5-5.1,5.4-19,5.4s-18.8-4.9-19.3-5.5a10.3,10.3,0,0,0-15.7,13.4c.1.1.1.2.2.2,3.3,3.8,13.3,12.5,34.8,12.5s31.4-8.8,34.7-12.6a10.3,10.3,0,0,0-1.1-14.5,10.6,10.6,0,0,0-6.8-2.5Zm2.6,12.5c-2.6,3.1-10.7,10.2-29.4,10.2s-27-7.1-29.6-10.1a3.5,3.5,0,0,1,.2-4.9,3.6,3.6,0,0,1,4.9.3h0c1.6,1.9,8.1,7.9,24.5,7.9s22.6-6,24.2-7.8a3.5,3.5,0,0,1,4.9-.4,3.4,3.4,0,0,1,.3,4.8Z"/><path d="M395.3,279.9c-7.4-9.6-20.4-13.8-34-11-19.2,4.1-35,1.4-45.2-7.5a63.2,63.2,0,0,0,52.2-25c3.8-4.9,7.2-6.2,9-5.7s2.9,2.4,3.3,5.3a9.9,9.9,0,0,0,10.9,8.6,9.8,9.8,0,0,0,8.7-10c-.7-16.8-9.7-23.1-14.9-25.3-9.3-4-20.7-1.6-29.1,5.9-20.6,18.2-39.4,18.8-48.2,11.5a7.3,7.3,0,0,1-2.2-7.3l.9-3c13-41.3,11.8-75.4-3.4-96.1-10.3-14-26.8-21.4-47.8-21.4s-37.6,7.4-47.8,21.4c-15.2,20.7-16.4,54.8-3.4,96l.9,3.1a7.2,7.2,0,0,1-2.3,7.3c-8.8,7.2-27.6,6.7-48.1-11.6-8.4-7.5-19.8-9.8-29.1-5.9-5.3,2.3-14.2,8.5-14.9,25.2a9.7,9.7,0,0,0,9.8,10.2,9.7,9.7,0,0,0,9.7-8.5c.5-2.9,1.7-4.9,3.4-5.4s5.1.8,9,5.7a63.2,63.2,0,0,0,52.2,25c-10.2,8.9-26,11.6-45.2,7.6-13.5-2.9-26.5,1.2-33.9,10.7s-7.7,21-2,33a10.5,10.5,0,0,0,13.3,5.3,10.3,10.3,0,0,0,5.8-13.2,6.8,6.8,0,0,1,.6-7c2.3-2.7,7.6-3.5,14.2-2.2,24.4,5,45,4,61.4-2.9.5,9.7-6.9,25.7-30.4,43.4-10,7.5-15.8,20.3-14,31.1,1.5,9.1,8.1,15.9,18.5,19.3a9.8,9.8,0,0,0,12.4-12.8,9.7,9.7,0,0,0-5.4-5.5c-2.4-1.1-3.9-2.4-3.9-3.5s1.9-4.8,7.9-8.6c15.7-9.9,32.8-21.8,43.5-39.1a88.4,88.4,0,0,1-1.5,12.6c-5.1,24-.5,42.8,12.8,52.8a39.7,39.7,0,0,0,24,7.4,71,71,0,0,0,33.3-9.3,9.9,9.9,0,0,0,5.1-11.2,9.8,9.8,0,0,0-5.6-6.6,9.2,9.2,0,0,0-8.4.2c-6.7,3.4-19.8,6-26.7.8-5.1-3.9-6.4-11.7-4-23.2a91.1,91.1,0,0,1,6.9-18.9c1.6-3.4,3.2-7,4.7-10.9C288.4,332.8,307,346,325.9,357c6.2,3.6,8.3,6.6,8.3,8.3s-1.4,2.4-3.7,3.6a10,10,0,0,0-5.8,10.3,9.9,9.9,0,0,0,12.9,8c10.5-3.7,16.9-10.8,18.1-20.1,1.5-10.8-4.7-23.5-15-30.6-22.9-16-31.4-31-32-41,14.5,4.7,32,4.7,54.6.1,6.5-1.3,11.8-.5,14.2,2.2a7.1,7.1,0,0,1,.7,6.9,10.3,10.3,0,0,0,18.7,8.5C402.9,301.1,402.3,288.9,395.3,279.9Zm-4.6,30.2a3.4,3.4,0,0,1-2.4,1.8,4.2,4.2,0,0,1-3.2-1.1,4,4,0,0,1-.5-3.8,13.5,13.5,0,0,0-1.9-13.8c-4.1-4.6-11.6-6.2-20.8-4.4-23.1,4.8-40.3,4.5-54.1-.9a4,4,0,0,0-3.7.3,4.1,4.1,0,0,0-2.1,3c-2.2,15.2,10.8,34.2,34.8,50.9,8.1,5.7,13.2,15.8,12.1,24.1-.9,6.6-5.6,11.6-13.6,14.4a2.6,2.6,0,0,1-2.3-.2,3.4,3.4,0,0,1-1.5-2.2,3.6,3.6,0,0,1,2-3.2c6.1-2.9,7.4-6.8,7.5-9.5.2-5-3.7-9.8-11.7-14.5-19.6-11.4-38.9-25.3-47.3-49.5a4.2,4.2,0,0,0-8.1.2,99.8,99.8,0,0,1-6.6,17,91.9,91.9,0,0,0-7.3,20.4c-3.1,14.3-.9,24.4,6.5,30,9.9,7.6,26.2,3.9,34.1-.1a2.9,2.9,0,0,1,2.4-.1,3.3,3.3,0,0,1,1.7,2.1,3.2,3.2,0,0,1-1.7,3.5c-19.4,10.3-38,11.2-49.8,2.4s-14.8-24.7-10.3-45.9a94.7,94.7,0,0,0,1.6-24.9,4.4,4.4,0,0,0-3.5-4h-.8a4.2,4.2,0,0,0-3.8,2.5c-9,21-28.4,34.6-45.8,45.6-7.8,5-11.6,10-11.2,15,.2,2.7,1.8,6.6,8.1,9.3a2.9,2.9,0,0,1,1.7,1.7,2.8,2.8,0,0,1-.1,2.2,3.1,3.1,0,0,1-3.8,1.5c-7.9-2.6-12.7-7.4-13.8-13.9-1.4-8.2,3.4-18.5,11.3-24.4,29-21.8,35.7-42.2,32.4-54a4.1,4.1,0,0,0-2.3-2.7,4.4,4.4,0,0,0-3.7.1c-15.4,7.6-35.6,8.9-60.1,3.8-9.2-1.8-16.8-.2-20.9,4.5a13.7,13.7,0,0,0-1.8,13.9,3.5,3.5,0,0,1-1.9,4.5,3.7,3.7,0,0,1-4.5-2c-4.6-9.6-4.1-18.9,1.2-25.7s16.2-10.6,27.1-8.3c25,5.2,45.1,0,56.6-14.9a4.3,4.3,0,0,0-4-6.8,56.6,56.6,0,0,1-52.8-21.8c-7-9-13.2-8.9-16.2-8.1s-7.6,5.3-8.4,11.1a2.9,2.9,0,0,1-5,1.6,2.4,2.4,0,0,1-.8-2.1c.4-9.5,4.2-16.3,10.7-19.1s15.5-1,21.8,4.7c23.6,20.9,46.1,20.8,57.1,11.8a14,14,0,0,0,4.5-14.4l-.9-3.4c-12.4-39.1-11.5-71,2.3-89.9,9.1-12.4,23.3-18.6,42.3-18.6s33.2,6.2,42.2,18.6c13.9,18.9,14.7,50.8,2.4,89.9-.4,1.1-.7,2.3-1,3.4a14.1,14.1,0,0,0,4.6,14.4c10.9,9,33.5,9.1,57-11.8,6.4-5.7,15.2-7.6,21.9-4.7s10.3,9.6,10.7,19.2a2.8,2.8,0,0,1-1.1,2.3,3.2,3.2,0,0,1-2.8.5,3.3,3.3,0,0,1-2-2.7c-.9-5.6-4-9.7-8.4-10.8s-9.1-.8-16.1,8.1A56.7,56.7,0,0,1,310,254a4.2,4.2,0,0,0-4.7,3.6,4,4,0,0,0,.8,3.2c11.5,14.8,31.5,20.1,56.6,14.9,11-2.3,21.4.9,27.2,8.4s5.6,16.4.8,26Z"/></svg>