<svg xmlns="http://www.w3.org/2000/svg" viewBox="0 0 512 512"><defs><style>.a{fill:#6d44bc;}.b{fill:#eab611;}.c{fill-rule:evenodd;}</style></defs><circle class="a" cx="256" cy="256" r="246.3"/><circle class="b" cx="256" cy="256" r="223.2"/><path class="c" d="M261.1,267l40.3-40.3-3-3.1L258,263.9l-24.3-24.3-3,3.1L255,267l-10.6,10.5,3.1,3.1L258,270.1l6.6,6.5,3-3.1Zm-3.3,87.9a87.2,87.2,0,1,0-87.1-87.1A87.1,87.1,0,0,0,257.8,354.9Zm0-6.5a80.7,80.7,0,1,0-80.6-80.6A80.6,80.6,0,0,0,257.8,348.4Zm-2.1-159H260v8.7h-4.3Zm39.5,9.4L299,201l-4.4,7.5-3.8-2.2Zm29.5,27.9,2.2,3.8-7.6,4.4-2.1-3.8Zm11.6,39V270h-8.7v-4.3Zm-9.4,39.5-2.2,3.8-7.5-4.4,2.1-3.8ZM299,334.7l-3.8,2.2-4.4-7.6,3.8-2.2Zm-39,11.6h-4.3v-8.7H260Zm-39.5-9.4-3.8-2.2,4.4-7.6,3.8,2.2ZM191,309l-2.2-3.8,7.6-4.4,2.1,3.8Zm-11.6-39v-4.3h8.7V270Zm9.4-39.5,2.2-3.8,7.5,4.4-2.1,3.8ZM216.7,201l3.8-2.2,4.4,7.5-3.8,2.2Z"/><path d="M416.2,252.9c-2.5-84.7-72.2-152.8-157.6-152.8s-155,68.1-157.5,152.8H101v81.2a30.3,30.3,0,1,0,60.5,0V283.2a30.3,30.3,0,0,0-30.2-30.3H110.7c2.5-79.4,67.9-143.2,147.9-143.2s145.5,63.8,148,143.2H386a30.3,30.3,0,0,0-30.2,30.3v50.9a30.3,30.3,0,1,0,60.5,0V252.9ZM152,283.2v50.9a20.7,20.7,0,1,1-41.4,0V262.5h20.7A20.7,20.7,0,0,1,152,283.2Zm254.7,50.9a20.7,20.7,0,0,1-41.4,0V283.2A20.7,20.7,0,0,1,386,262.5h20.7Z"/></svg>