<svg xmlns="http://www.w3.org/2000/svg" viewBox="0 0 512 512"><defs><style>.a{fill:#eab611;}.b{fill:#6d44bc;}.c{fill:#fff;fill-rule:evenodd;}.d{fill:#4add19;}</style></defs><circle class="a" cx="256" cy="256" r="246.3"/><circle class="b" cx="256" cy="256" r="223.2"/><path class="c" d="M261,254.8l60.8-60.9-4.6-4.6-60.9,60.8-36.7-36.7-4.7,4.7,36.8,36.7-16,15.9,4.7,4.7,15.9-15.9,9.8,9.8,4.7-4.7Zm-5,132.8A131.6,131.6,0,1,0,124.4,256,131.6,131.6,0,0,0,256,387.6Zm0-9.8A121.8,121.8,0,1,0,134.2,256,121.8,121.8,0,0,0,256,377.8Zm-3.3-240.2h6.6v13.2h-6.6Zm59.7,14.3,5.7,3.2-6.6,11.4-5.7-3.2ZM357,194l3.3,5.7-11.4,6.6-3.3-5.7Zm17.5,58.8v6.6H361.3v-6.6Zm-14.2,59.7-3.3,5.7-11.4-6.6,3.3-5.7Zm-42.2,44.6-5.7,3.3L305.8,349l5.7-3.3Zm-58.8,17.5h-6.6V361.4h6.6Zm-59.7-14.2-5.7-3.3,6.6-11.4,5.7,3.3ZM155,318.2l-3.3-5.7,11.4-6.6,3.3,5.7Zm-17.5-58.8v-6.6h13.2v6.6Zm14.2-59.7L155,194l11.4,6.6-3.3,5.7Zm42.2-44.6,5.7-3.2,6.6,11.4-5.7,3.2Z"/><circle class="d" cx="327.1" cy="152" r="27.5"/></svg>