<svg xmlns="http://www.w3.org/2000/svg" viewBox="0 0 512 512"><defs><style>.a{fill:#eab611;}.b{fill:#6d44bc;}.c{fill:#fff;}</style></defs><circle class="a" cx="256" cy="256" r="246.3"/><circle class="b" cx="256" cy="256" r="223.2"/><path class="c" d="M321.9,325.7a1.3,1.3,0,0,1-1-1.4,1.4,1.4,0,0,1,1.5-1,15,15,0,0,1,6.4,2.6,14.5,14.5,0,0,1,4.8,5.9,1.3,1.3,0,0,1-.7,1.6,1.3,1.3,0,0,1-1.6-.6,12,12,0,0,0-3.9-5,13.1,13.1,0,0,0-5.5-2.1ZM218.8,234.1a18.7,18.7,0,0,0-3.9.9,11.7,11.7,0,0,0-5.9,5,16.6,16.6,0,0,0-2.3,8,25,25,0,0,0,1.9,10.7,1.8,1.8,0,0,1-1.1,2.4,2.1,2.1,0,0,1-2.6-1,29.3,29.3,0,0,1-2.1-12.3,21.1,21.1,0,0,1,2.8-9.7c.1-.2.1-.3.2-.4l-2,1c-7.7,3.6-16.3,7.6-28.6,6a1.9,1.9,0,0,1-1.7-2.1,2.1,2.1,0,0,1,2.2-1.6c11.1,1.4,19.1-2.4,26.4-5.7s12.2-5.7,18.8-5h.3c-2.9-2.2-5.8-4.5-8.6-7a37.1,37.1,0,0,0-7.6-4.7l-.2.3c-4.7,7-8.5,11.2-13.2,13.3s-10,2.1-17.8.7h-.5a1.9,1.9,0,0,1-1.1-2.5c2.9-6.4,5.9-10,10.2-11.3s9.1-.4,16,2.3l3-4.3a135.2,135.2,0,0,0-13.6-4.3c-10.3-2.9-21.1-6-30.8-13.5a1.7,1.7,0,0,1-.3-2.6,1.9,1.9,0,0,1,2.7-.3c7.5,5.8,16,8.8,24.3,11.3a53.9,53.9,0,0,1-6.5-7,1.8,1.8,0,0,1,.3-2.6,2,2,0,0,1,2.8.3,53.2,53.2,0,0,0,6.9,7.3,35,35,0,0,0,6.8,4.7.9.9,0,0,1,.6.4c3,.9,5.8,1.8,8.5,2.9a59.1,59.1,0,0,1-9.3-16,2,2,0,0,1,.1-1.5,1.9,1.9,0,0,1,.7-1.2,1.9,1.9,0,0,1,2.7.2c11.2,12.6,21.4,18.8,30.5,24.4,6,3.7,11.7,7.2,16.9,12,3.6-12,5.6-19.1,6.1-24.9s-.4-11.1-2.7-19a13.3,13.3,0,0,1-.5-1.9c-4.5-12.4-12-18.2-19.6-24-2.4-1.8-4.9-3.7-7.2-5.8a1.9,1.9,0,0,1-.2-2.7,2,2,0,0,1,2.8-.1l2.6,2.2c-.5-4.8,2.3-8.3,5.1-11.8s5.3-6.5,3.1-11a1.8,1.8,0,0,1,.9-2.5,1.9,1.9,0,0,1,2.6.9c3.3,6.7-.1,10.8-3.5,15s-6.3,7.6-2.2,14c4.4,3.5,8.8,7.1,12.6,12.1-1-7.7-.5-13.8,1.4-19.6,2.8-8.2,8.3-15.3,16.6-24.8-6.6-7.3-10.1-13.1-10.3-18.8s3.3-11.4,10.7-17.9a1.8,1.8,0,0,1,2.7.1l.3.3h0c5.6,9.5,8.1,16.2,7.4,23.1s-3.2,10.8-7.9,17.4-7.6,13.7-9.4,20.2c-2.3,8.5-2.1,17.4,1.2,29.5,1.1,4.3,2.1,8,2.9,11.4,2.4-8.1,6.7-13.3,11.3-17.8s1.8-7.6-.2-11.9-4.5-9.7-2.1-15.7a2,2,0,0,1,2.6-1.1,1.8,1.8,0,0,1,1.1,2.4c-1.8,4.6.2,8.9,2,12.9s2.4,5.3,2.7,7.8a50.3,50.3,0,0,0,4-4,2.1,2.1,0,0,1,2.8-.3,1.9,1.9,0,0,1,.2,2.7,81.1,81.1,0,0,1-6.6,6.5c-7.3,6.6-15.1,13.6-15.6,30.6a4.9,4.9,0,0,0,.1,1.2,98,98,0,0,1-1.3,21.9c3.4-3.6,7.3-7.1,11.1-10.5,6.6-6,13.1-11.9,16.9-17.9a117.9,117.9,0,0,0,9.6-19.5,160.3,160.3,0,0,0,6.9-23.3,2,2,0,0,1,2.3-1.5h.3a1.8,1.8,0,0,1,1.9,1.9c-.2,28-7.7,44.8-16.7,57,3.9-2,8.4-3.1,14.2-3.6s9.6-4.9,12.8-11.6,4.6-14.4,3.6-24.3a2,2,0,0,1,1.8-2.1,1.9,1.9,0,0,1,2.1,1.8c1.1,10.5-.7,19.5-3.9,26.2a29.8,29.8,0,0,1-7.3,9.7h.2a29.5,29.5,0,0,0,11.4-1.7,19.1,19.1,0,0,0,7.6-5,2,2,0,0,1,2.8-.1,1.9,1.9,0,0,1,.1,2.7,23.9,23.9,0,0,1-9.1,5.9c-3.5,1.4-7.7,2-12.9,2H314a46.5,46.5,0,0,1,6.1,3.6,35.3,35.3,0,0,0,6.9,3.9,23.5,23.5,0,0,0,5.1,1.7,21.9,21.9,0,0,0,7,.2h.4a41.5,41.5,0,0,0,4.8-1.1,2,2,0,0,1,2.5,1.3,1.9,1.9,0,0,1-1.3,2.3c-12.2,3.6-23.3,1-31.4-1l-2.1-.5a40.6,40.6,0,0,0-28.4,4,33.7,33.7,0,0,0-3.2,1.9c7.5-1.6,13.9,1.4,20.9,4.7s15.3,7.1,26.3,5.7a1.9,1.9,0,0,1,2.2,1.6,1.8,1.8,0,0,1-1.6,2.1c-12.3,1.6-20.9-2.4-28.6-6h-.1a21.7,21.7,0,0,1,2.5,9.2,29.3,29.3,0,0,1-2.1,12.3,2.1,2.1,0,0,1-2.6,1,1.8,1.8,0,0,1-1.1-2.4,25,25,0,0,0,1.9-10.7,17.7,17.7,0,0,0-2.3-8,11.7,11.7,0,0,0-5.9-5l-2.4-.7c-5.2-.7-10.8.5-17.6,6.1h0a41.1,41.1,0,0,0-5.5,8.9v.2l-.3,1h0c-2.4,7.5-2.6,25.6-2.8,38.2,0,3.8-.1,7.1-.2,9.5-.1,5,1.5,7.8,4.2,9.2s7.3,1.6,12.1,1.2c3.2-.2,5.6-.3,8.3.6s5.5,2.4,9.4,5.4,4,2.8,5.9,2.6,5.2-1.5,10.4-3.8c7.3-3.2,12.9-.5,23.5,4.6l6.2,3a1.8,1.8,0,0,1,.9,2.5,2.1,2.1,0,0,1-2.6.9l-6.2-3c-9.5-4.6-14.5-7-20.1-4.5s-9,3.9-11.8,4.1-5.4-.8-8.7-3.4-5.9-4.2-8-4.8-4.2-.6-6.9-.4c-5.4.5-10.4.3-14.2-1.7a9.7,9.7,0,0,1-3.5-2.8,35.6,35.6,0,0,0,1.7,9.3c1.3,4,3.5,7.3,7.1,8.3l.5.2,3,.7,2.6.3c13.1.4,16.9,5.6,20.8,10.9s7,9.5,18.2,10.5a1.2,1.2,0,0,1,1.1,1.3,1.2,1.2,0,0,1-1.3,1.1c-12.4-1.2-16.2-6.4-20-11.5s-7-9.6-18.8-9.9l-2-.2a3.6,3.6,0,0,0,.4.9,13.1,13.1,0,0,1,.6,4.3c0,4.4.9,5.1,5.2,8.9h.1c6.3-2.6,10.3,2,14.3,6.6s6,7,9.8,6.7a1.1,1.1,0,0,1,1.3,1.1,1.1,1.1,0,0,1-1.1,1.2c-5.1.5-8.5-3.5-11.9-7.5s-6.2-7.2-10.3-6.3a14.1,14.1,0,0,1,3.3,4.9,9.8,9.8,0,0,1,.5,6.3,13.7,13.7,0,0,1-2.1,4.6,20.3,20.3,0,0,1-4,4.3,1.4,1.4,0,0,1-1.7-.1,1.2,1.2,0,0,1,.1-1.7,17.8,17.8,0,0,0,3.5-3.8,10.2,10.2,0,0,0,1.8-3.8,7.9,7.9,0,0,0-.4-5,12.4,12.4,0,0,0-3.4-4.6l-.5-.5c-.2,0-.3-.2-.4-.3l-.5-.5c-5-4.3-6-5.2-6-10.6a11,11,0,0,0-.6-3.5,4,4,0,0,0-2.4-2.7H268c-4.5-1.3-7.2-5.2-8.7-9.9s-2.2-11.8-2.1-16.7c-.1-1-.1-2.1-.1-3.2s.2-5.6.2-9.3c.2-12.8.4-31,2.9-39.2h0l.6-1.5h0a42.4,42.4,0,0,1,10.5-14.9l5.3-5.5c11.4-11.4,24.7-24.8,28.6-53.7-.8,2.6-1.8,5.2-2.8,7.8a111.5,111.5,0,0,1-9.9,20.2c-4,6.4-10.7,12.5-17.5,18.6-10.5,9.5-21.2,19.2-21.4,29.8a2,2,0,0,1-2,1.8,2,2,0,0,1-2-1.9,26.2,26.2,0,0,1,.9-5.6c-7.1-10.8-15.4-15.9-24.8-21.7-7.2-4.4-15.1-9.2-23.6-17.2a71.9,71.9,0,0,0,13.2,15.1l1.2,1,8.7,7c7.7,6,14.8,11.4,18.7,18.9s3.7,28.1,3.9,41.9c0,3.5.1,6.5.1,8.6a2.8,2.8,0,0,1,.1.9c.2,5,.1,12.8-2,19s-4.2,8.6-8.7,9.9h-.4a4.2,4.2,0,0,0-2.5,2.7,10.3,10.3,0,0,0-.5,3.5c0,5.4-1,6.3-6,10.6l-.5.5-.4.3-.5.5a12.8,12.8,0,0,0-3.5,4.6,9.6,9.6,0,0,0-.4,5,14.6,14.6,0,0,0,1.8,3.8,21.4,21.4,0,0,0,3.6,3.8,1.2,1.2,0,0,1,.1,1.7,1.4,1.4,0,0,1-1.7.1,18,18,0,0,1-4-4.3,12,12,0,0,1-2.1-4.6,10.5,10.5,0,0,1,.4-6.3,16.1,16.1,0,0,1,3.4-4.9c-4.1-.9-7.2,2.7-10.4,6.3s-6.8,8-11.8,7.5a1.2,1.2,0,0,1-1.2-1.2,1.2,1.2,0,0,1,1.4-1.1c3.8.3,6.8-3.2,9.8-6.7s7.9-9.2,14.2-6.6h.2c4.3-3.8,5.2-4.5,5.2-8.9a13.1,13.1,0,0,1,.6-4.3,3.6,3.6,0,0,1,.4-.9l-2,.2c-11.8.3-15.3,5-18.8,9.9s-7.7,10.3-20,11.5a1.4,1.4,0,0,1-1.4-1.1,1.3,1.3,0,0,1,1.1-1.3c11.3-1,14.8-5.8,18.3-10.5s7.7-10.5,20.7-10.9l2.7-.3,3-.7.5-.2c3.5-1,5.7-4.3,7.1-8.3a37.9,37.9,0,0,0,1.7-9.5,12.2,12.2,0,0,1-3.7,3c-3.8,2-8.9,2.2-14.3,1.7-2.7-.2-4.7-.3-6.8.4s-4.5,2-8,4.8-5.6,3.7-8.7,3.4-6.1-1.7-11.8-4.1-10.6-.1-20.1,4.5l-6.2,3a2,2,0,0,1-2.6-.9,1.8,1.8,0,0,1,.9-2.5l6.1-3c10.6-5.1,16.2-7.8,23.5-4.6,5.3,2.3,8.3,3.7,10.5,3.8s3.4-.6,5.9-2.6,6.7-4.6,9.3-5.4,5.2-.8,8.4-.6,9.1.3,12.1-1.2,4.3-4.2,4.1-9.2c-.1-2.2-.1-5.2-.1-8.7-.2-13.5-.5-34.4-3.5-40.3a36.1,36.1,0,0,0-7-8.9c-5.6-4.5-10.2-6.1-14.6-6.2Zm-35.9,89.2a1.2,1.2,0,0,1,1.4,1,1.2,1.2,0,0,1-1,1.4,12.7,12.7,0,0,0-5.4,2.1,12.1,12.1,0,0,0-4,5,1.3,1.3,0,0,1-1.6.6,1.2,1.2,0,0,1-.6-1.6,13.7,13.7,0,0,1,4.8-5.9A15,15,0,0,1,182.9,323.3Zm52.2-6a1.2,1.2,0,0,1,1.1,1.3,1.1,1.1,0,0,1-1.3,1.1c-5-.5-8.4-.1-11,.8a25.4,25.4,0,0,0-7,4.3,26.2,26.2,0,0,1-8.2,4.5,15.9,15.9,0,0,1-7.2.1c-5.1-.8-9.4-.9-12.2.7s-4,4.9-3.4,11.3a1.2,1.2,0,0,1-1.1,1.3,1.3,1.3,0,0,1-1.3-1.1c-.7-7.5,1.1-11.6,4.6-13.6s8.2-1.8,13.8-.9a14.4,14.4,0,0,0,6.2-.1,22.2,22.2,0,0,0,7.3-4.1,26.6,26.6,0,0,1,7.6-4.6c3-1.1,6.7-1.5,12.1-1Zm2.4,41.6h0a16.4,16.4,0,0,1-1.1-4.5,9.6,9.6,0,0,1,3.3-8.5l.5-.5c4.3-4,7-6.5,5.4-12.8a1.3,1.3,0,0,1,.9-1.4,1.3,1.3,0,0,1,1.5.9c1.9,7.5-1.2,10.4-6.1,15l-.5.5a7.5,7.5,0,0,0-2.6,6.6,16,16,0,0,0,1,3.9h0a10.4,10.4,0,0,1,.4,1c.4,1,.8,2.1,1.3,3.2,2.2,5,2.7,8.5,1.7,12s-3.3,6.6-6.9,11a1.2,1.2,0,0,1-1.9-1.5c3.4-4.1,5.6-7.1,6.5-10.1a13.8,13.8,0,0,0-.6-7.9,9.3,9.3,0,0,0-.5,1,6,6,0,0,1-2.9,2.3,8,8,0,0,1-3.2.5c-2.1-.1-3.4.1-4.2.6a6,6,0,0,0-1.6,3.2,4.7,4.7,0,0,1-3.9,3.2,10.2,10.2,0,0,1-4.2-.3,15.4,15.4,0,0,1-4.3-1.7c-3.4-2-6.2-5.2-5.9-9.1a1.4,1.4,0,0,1,1.3-1.1,1.3,1.3,0,0,1,1.2,1.3c-.2,2.8,1.9,5.3,4.6,6.9a18.6,18.6,0,0,0,3.7,1.4,7.2,7.2,0,0,0,3.2.2,2.1,2.1,0,0,0,1.9-1.4,7.9,7.9,0,0,1,2.6-4.5c1.3-.9,3-1.2,5.7-1.1a3.8,3.8,0,0,0,2.2-.3,3.7,3.7,0,0,0,1.7-1.3,5.1,5.1,0,0,0,.6-2.5,8.5,8.5,0,0,0-.5-3.4l-.3-.7ZM356.2,219.1c-.2-7.1.6-12,3.2-15.2s7.3-5,14.6-5.4a1.9,1.9,0,0,1,2,1.8v.4h0c-1.4,7.7-3.2,12.5-6.9,16.1s-9,5.4-17.4,7.3a2,2,0,0,1-2.4-1.4,1.9,1.9,0,0,1,1.5-2.3l5.4-1.3Zm6.3-12.9c-1.9,2.3-2.5,6-2.5,11.6a18.7,18.7,0,0,0,6.3-3.7c2.7-2.6,4.2-6.1,5.4-11.6C367.1,202.9,364.2,204.1,362.5,206.2Zm-17.4-11.9c-4-5.9-5.9-10.5-5.4-14.6s3.5-7.9,9.5-11.9a2.2,2.2,0,0,1,2.8.5.5.5,0,0,0,.2.4h0c2.9,7.2,4,12.3,2.7,17.2s-4.8,9.1-10.9,15a2,2,0,0,1-2.8-.1,1.7,1.7,0,0,1,0-2.6l3.9-3.9Zm-1.5-14.2c-.4,3,1.1,6.5,4.1,11.2a20,20,0,0,0,3.4-6.4c.9-3.5.2-7.3-1.7-12.5-3.7,2.7-5.5,5.1-5.8,7.7Zm-51.7-25.3c-5.4-7.6-8.1-13.4-7.5-18.7s4.2-9.9,11.7-15.1a1.9,1.9,0,0,1,2.7.5l.2.3h0c4,9.1,5.5,15.5,4,21.7s-5.8,11.7-13.5,19.3a1.9,1.9,0,1,1-2.8-2.6c2-1.9,3.7-3.7,5.2-5.4Zm-3.6-18.3c-.4,4,1.7,8.8,6.2,15.2a25.2,25.2,0,0,0,4.7-9c1.1-4.8.1-10-2.8-17.2-5.2,3.9-7.8,7.3-8.1,11Zm-32.1-27.8c.1,4.5,3.2,9.5,9,16l.4-.5,1.3-2.1h.1a23.8,23.8,0,0,0,2.5-8c.6-5.4-1.4-11.1-5.7-18.7-5.3,5-7.7,9.2-7.6,13.4Zm-47.3,32.4c3.6-7.3,5-12.6,3.9-16.8s-4.2-6.9-10.3-10.1c-1.8,7.9-2,13.4,0,18.2a24.6,24.6,0,0,0,6.4,8.7Zm7.8-17.7c1.3,5.4-.4,11.7-4.7,20.4,1.8,1.5,3.9,3.1,6.2,4.8a1.7,1.7,0,0,1,.4,2.6,1.9,1.9,0,0,1-2.7.4c-9.2-6.6-14.6-11.7-17.1-17.8s-2-12.9.5-22.8h0a.5.5,0,0,1,.2-.4,1.9,1.9,0,0,1,2.6-.9c8.5,4.1,13.1,8.2,14.6,13.7Zm-70.1,62.8c2.2-5.1,3.1-8.8,2.3-11.7s-3-4.6-7.1-6.7c-1,5.5-1,9.3.4,12.6A18.6,18.6,0,0,0,146.6,186.2Zm6-12.7c1.2,4,0,8.8-2.9,15.3l4.4,3.2a1.8,1.8,0,0,1,.5,2.6,1.9,1.9,0,0,1-2.7.5c-7.1-4.9-11.3-8.6-13.3-13.2s-1.8-9.8-.1-17.3h0c0-.2.1-.3.1-.4a1.9,1.9,0,0,1,2.6-.9c6.6,2.9,10.2,6,11.4,10.2Zm43.2,50.8c-5.4-1.9-9.3-2.6-12.2-1.7s-4.7,3-6.7,7c5.7.8,9.7.7,13.1-.8a20.7,20.7,0,0,0,5.8-4.5Zm-29.4-6.4c-5.5-1.7-9.4-2.2-12.3-1.1s-4.5,3.3-6.3,7.4c5.8.5,9.8.1,13.1-1.6h0a19.4,19.4,0,0,0,5.5-4.7Zm-13.7-4.6c4.1-1.5,9.1-.9,16.1,1.3.9-1.3,1.8-2.8,2.8-4.5a2,2,0,0,1,2.7-.7,1.8,1.8,0,0,1,.8,2.5c-4.3,7.3-7.8,11.7-12.3,14h-.1c-4.5,2.5-9.9,2.7-17.8,1.8h-.5a1.9,1.9,0,0,1-1.2-2.4c2.5-6.6,5.3-10.3,9.5-11.9Zm83.2.3c2.6-4.9,3.8-8.5,3.3-11.4s-2.6-4.9-6.5-7.3c-1.5,5.3-1.8,9.2-.7,12.6A18.3,18.3,0,0,0,235.9,213.6Zm7.1-12.1c.8,4.1-.7,8.7-4.3,14.9l4.2,3.6a1.9,1.9,0,1,1-2.5,2.9c-6.6-5.4-10.5-9.5-12.1-14.2s-1-9.9,1.4-17.3h0l.2-.4a1.9,1.9,0,0,1,2.6-.7c6.3,3.5,9.7,6.9,10.5,11.2Zm-25.4-23.2c-.7-6.4-2-10.6-4.4-13s-5.8-3.1-11.2-3c2.1,6.1,4.3,10,7.7,12.6a21.4,21.4,0,0,0,7.9,3.4ZM216,162.6c3.3,3.3,4.9,8.6,5.6,16.6,1.9.3,4,.6,6.4.8a2,2,0,0,1,1.7,2.1,2,2,0,0,1-2.2,1.7c-9.6-1.1-15.7-2.6-20.3-5.9s-7.2-8.6-9.7-16.9c-.1-.1-.1-.2-.1-.4a1.9,1.9,0,0,1,1.8-2c8-.5,13.2.6,16.8,4Zm-42.2,21.3c4.3-3.6,6.8-6.5,7.4-9.4s-.6-5.5-3.2-9.1c-3.5,4.5-5.3,8-5.5,11.5a16.9,16.9,0,0,0,1.3,7Zm11.2-8.7c-.8,4.1-4,7.9-9.6,12.4.7,1.5,1.5,3.1,2.5,4.8a2,2,0,0,1-.8,2.6,2.1,2.1,0,0,1-2.7-.8c-4.1-7.4-6.1-12.5-5.8-17.5s2.8-9.5,7.8-15.5l.4-.4a2,2,0,0,1,2.7.3c4.5,5.5,6.4,9.8,5.5,14.1Zm85.4,144.5a1.2,1.2,0,0,1-1.4-1.1,1.3,1.3,0,0,1,1.1-1.3c5.4-.5,9.1-.1,12.1,1a28.6,28.6,0,0,1,7.7,4.6,21.2,21.2,0,0,0,7.3,4.1,14.3,14.3,0,0,0,6.2.1c5.6-.9,10.4-1,13.8.9s5.3,6.1,4.6,13.6a1.3,1.3,0,0,1-1.4,1.1,1.4,1.4,0,0,1-1.1-1.3c.6-6.4-.7-9.8-3.4-11.3s-7-1.5-12.1-.7a16.3,16.3,0,0,1-7.3-.1,25.9,25.9,0,0,1-8.1-4.5,27,27,0,0,0-7-4.3c-2.7-.9-6-1.3-11-.8Zm-4.9,38.4h0a15.5,15.5,0,0,0,.9-3.9,7.7,7.7,0,0,0-2.5-6.6l-.6-.5c-4.8-4.6-7.9-7.5-6-15a1.2,1.2,0,0,1,1.5-.9,1.3,1.3,0,0,1,.9,1.4c-1.6,6.3,1.1,8.8,5.3,12.8l.6.5a9.8,9.8,0,0,1,3.3,8.5,29.3,29.3,0,0,1-1.1,4.5h-.1c-.1.2-.1.5-.2.7a11.1,11.1,0,0,0-.6,3.4,6.6,6.6,0,0,0,.7,2.5,3.7,3.7,0,0,0,1.7,1.3,3.6,3.6,0,0,0,2.1.3c2.7-.1,4.5.2,5.8,1.1a7.9,7.9,0,0,1,2.6,4.5,2,2,0,0,0,1.9,1.4,7.2,7.2,0,0,0,3.2-.2,15.8,15.8,0,0,0,3.6-1.4c2.7-1.6,4.9-4.1,4.7-6.9a1.2,1.2,0,0,1,1.1-1.3,1.2,1.2,0,0,1,1.3,1.1c.3,3.9-2.4,7.1-5.8,9.1a15.4,15.4,0,0,1-4.3,1.7,10.3,10.3,0,0,1-4.2.3,4.7,4.7,0,0,1-3.9-3.2,5.4,5.4,0,0,0-1.7-3.2c-.8-.5-2.1-.7-4.2-.6a7.5,7.5,0,0,1-3.1-.5,5.6,5.6,0,0,1-2.9-2.3l-.5-1c-1.1,3.1-1.3,5.6-.6,7.9s3,6,6.4,10.1a1.2,1.2,0,0,1-.1,1.7,1.4,1.4,0,0,1-1.8-.2c-3.6-4.4-5.9-7.6-6.9-11s-.4-7,1.7-12l1.4-3.2a3,3,0,0,1,.4-1Zm-12.8-9.6a1.2,1.2,0,0,1,.5-1.6,1.3,1.3,0,0,1,1.7.5c2.7,4.9,3.7,8.3,3.5,11.1s-1.7,5.3-3.8,8.2c-7.4,10.3-3.1,17.2,3.8,28.3l3.6,6a1.2,1.2,0,0,1-.5,1.6,1.1,1.1,0,0,1-1.6-.4l-3.6-5.9c-7.4-12-12-19.4-3.7-30.9,1.8-2.6,3.1-4.7,3.3-7S255.2,353,252.7,348.5Zm45.9-132a32,32,0,0,0-10.5,6.1,43.9,43.9,0,0,1,24.8-1.6l2.2.6,5.5,1.2-2.8-1.8c-4.8-3.2-9.4-6.3-19.2-4.5Zm-43.5-73.3a37.9,37.9,0,0,0-5.3,10.4c-2.9,8.4-2.3,18,2.1,33,2.4,8.4,3.5,13.6,2.8,20.3s-2.8,14.3-6.9,27.7c1.5,1.7,3,3.5,4.5,5.5a33.9,33.9,0,0,1,4-6.4v-.2c2.2-12.1,2.8-19.8,2.2-27s-2.3-13.9-5-24c-3.5-12.9-3.7-22.3-1.2-31.5a60.9,60.9,0,0,1,2.8-7.8Z"/></svg>