<svg xmlns="http://www.w3.org/2000/svg" viewBox="0 0 512 512"><defs><style>.a{fill:#eab611;}.b{fill:#6d44bc;}.c{fill:#fff;}</style></defs><circle class="a" cx="256" cy="256" r="246.3"/><circle class="b" cx="256" cy="256" r="223.2"/><rect class="c" x="217.5" y="191.4" width="82.7" height="8.46"/><path class="c" d="M273,324.7l-58.6-63.3a4.2,4.2,0,0,1,3.4-7.1c.3,0,30.1,2.2,44.7-13.8s-8.8-41.8-9-42.1L260,193c1.1,1.3,27.2,32.9,8.7,53.2-11.6,12.7-30.1,15.9-41.6,16.5l52.1,56.2Z"/><rect class="c" x="217.5" y="221.2" width="82.7" height="8.46"/><path class="c" d="M258.8,376.8c-66.8,0-121.2-54.4-121.2-121.2A121.2,121.2,0,1,1,258.8,376.8Zm0-234a112.8,112.8,0,0,0,0,225.5c62.2,0,112.8-50.6,112.8-112.7A112.9,112.9,0,0,0,258.8,142.8Z"/></svg>